<svg width="64" height="64" viewBox="0 0 64 64" fill="none" xmlns="http://www.w3.org/2000/svg">
<path d="M46.7608 52.7147H45.9289C45.9289 52.7059 45.9249 52.697 45.9231 52.6888L45.9004 52.5872C45.8858 52.5204 45.87 52.4541 45.8537 52.3884C45.8467 52.3575 45.8391 52.3266 45.8315 52.2957C45.8099 52.209 45.7872 52.1223 45.7639 52.0357L45.7569 52.0108C45.7312 51.917 45.7044 51.8235 45.6764 51.7304L45.6484 51.6404C45.6291 51.5763 45.6087 51.5129 45.59 51.4494C45.5789 51.4146 45.5673 51.3804 45.5562 51.3461C45.5358 51.2849 45.5148 51.2236 45.4932 51.1628C45.4821 51.1308 45.4704 51.0983 45.4594 51.0668C45.4321 50.9906 45.4041 50.915 45.3754 50.8399C45.3689 50.8239 45.3637 50.8084 45.3573 50.7924C45.3234 50.7041 45.2879 50.6163 45.2517 50.5285C45.2389 50.4965 45.2254 50.465 45.212 50.4336C45.1875 50.3784 45.163 50.3176 45.1379 50.2602L45.0907 50.1537C45.0662 50.0985 45.0411 50.0432 45.0155 49.988C44.9997 49.9538 44.9834 49.919 44.967 49.8848C44.9373 49.8213 44.9087 49.7584 44.8754 49.696C44.8632 49.6723 44.8521 49.648 44.8399 49.6237C44.7985 49.5414 44.7559 49.4581 44.7127 49.3786L44.6544 49.2753L44.5721 49.1257L44.5079 49.0153C44.4811 48.9689 44.4543 48.9225 44.4269 48.8762C44.4053 48.8386 44.3831 48.8011 44.361 48.7658C44.3306 48.7155 44.3026 48.6664 44.2694 48.6167L44.1854 48.482C44.1457 48.4202 44.106 48.3578 44.0652 48.2965C44.0395 48.2579 44.0139 48.2198 43.9876 48.1817C43.9614 48.1436 43.9328 48.1 43.9048 48.0597C43.8768 48.0194 43.8465 47.9791 43.8208 47.9393C43.7951 47.8996 43.7671 47.8637 43.7397 47.8289C43.7123 47.7941 43.6814 47.7478 43.6516 47.7075L43.5694 47.597C43.511 47.5236 43.4574 47.4502 43.4002 47.3762L43.3203 47.2752C43.2865 47.2327 43.2515 47.1907 43.217 47.1488L43.14 47.056C43.1045 47.0135 43.0683 46.9715 43.0321 46.929L42.9563 46.8418L42.8431 46.7137L42.776 46.6397C42.6366 46.4868 42.4937 46.3361 42.3473 46.1893L42.2831 46.1247L42.149 45.9938L42.083 45.9309C42.0364 45.8862 41.9897 45.842 41.9425 45.7984L41.894 45.7542C41.729 45.6024 41.5592 45.4545 41.3866 45.3126L41.3393 45.2734C41.286 45.2292 41.2324 45.1856 41.1783 45.1425L41.1246 45.0995C41.0663 45.0553 41.0132 45.0117 40.9566 44.9681L40.928 44.9466C40.7373 44.8008 40.5419 44.6589 40.3447 44.5226L40.3173 44.5032C40.2549 44.4607 40.1925 44.4188 40.1295 44.3774L40.0881 44.3503C40.0239 44.3078 39.9591 44.2664 39.8944 44.225L39.8833 44.2184C39.6686 44.0826 39.4499 43.9525 39.2271 43.8281L39.2183 43.8225C39.1477 43.7833 39.0771 43.7452 39.0066 43.7072L38.9756 43.6906C38.6 43.49 38.2142 43.306 37.8183 43.1385L37.7938 43.128C37.6894 43.0839 37.5844 43.0414 37.4782 42.9994H39.566C39.9061 42.9994 40.182 42.629 40.182 42.1713C40.182 41.7136 39.9061 41.3432 39.566 41.3432H38.9441C38.9826 41.2505 39.0252 41.1456 39.0713 41.0274C39.6593 40.6807 40.6941 39.9421 41.7208 38.5851L41.729 38.5746C41.8067 38.473 41.8832 38.3679 41.9582 38.2593L41.9734 38.2378C42.048 38.1313 42.1227 38.0214 42.1962 37.9066L42.216 37.8762C42.251 37.821 42.286 37.7658 42.321 37.7106C42.321 37.7106 42.321 37.7062 42.3251 37.7034C42.3613 37.6482 42.3969 37.5875 42.4325 37.5284L42.4552 37.4903C42.4855 37.4395 42.5165 37.3876 42.5462 37.3352C42.552 37.3258 42.5579 37.3164 42.5631 37.3065C42.5975 37.2469 42.632 37.1861 42.6658 37.1248L42.6891 37.0823C42.7171 37.0315 42.7445 36.9802 42.772 36.9283C42.7801 36.914 42.7883 36.899 42.7959 36.8841C42.8285 36.8218 42.8612 36.7588 42.8939 36.6948L42.9166 36.6501C42.9423 36.5982 42.9685 36.5452 42.9942 36.4922L43.0222 36.437C43.0537 36.3718 43.0846 36.3056 43.1155 36.2388L43.1348 36.1963C43.1605 36.1411 43.1855 36.0859 43.2106 36.0306L43.2404 35.9644C43.2695 35.8976 43.2987 35.8302 43.3267 35.7623C43.332 35.7502 43.3372 35.7375 43.3419 35.7254C43.3681 35.663 43.3938 35.5995 43.4195 35.5354L43.4486 35.4626C43.4725 35.4018 43.4965 35.3406 43.5198 35.2793L43.5373 35.2329C43.5647 35.16 43.5915 35.0855 43.6184 35.0121L43.6464 34.9337C43.6674 34.8752 43.6878 34.8155 43.7082 34.7559C43.7158 34.7338 43.7234 34.7118 43.7304 34.6897C43.756 34.6135 43.7817 34.5356 43.8068 34.4578C43.815 34.4308 43.8237 34.4026 43.8319 34.3772L43.8902 34.1956C43.8978 34.1691 43.906 34.1404 43.9135 34.1166C43.9375 34.0366 43.9614 33.9549 43.9841 33.8726C43.9917 33.8467 43.9987 33.8202 44.0057 33.7937C44.0232 33.7302 44.0407 33.6667 44.0576 33.6021C44.0652 33.5728 44.0728 33.5436 44.081 33.5143C44.1025 33.4293 44.1241 33.3437 44.1451 33.2571L44.1626 33.1847C44.179 33.1157 44.1953 33.0462 44.211 32.976L44.232 32.8822C44.2519 32.7922 44.2717 32.7022 44.2904 32.6106C44.2945 32.5929 44.298 32.5747 44.3015 32.5554C44.3178 32.4764 44.3335 32.3964 44.3487 32.3163C44.3551 32.2838 44.361 32.2512 44.3674 32.2186C44.3825 32.1364 44.3971 32.053 44.4117 31.9707C44.4146 31.9531 44.4181 31.936 44.421 31.9188C44.4374 31.8217 44.4533 31.7238 44.4689 31.6251C44.4741 31.592 44.4794 31.5589 44.484 31.5252C44.4963 31.4452 44.508 31.3646 44.5196 31.2829L44.5301 31.2078C44.5441 31.1062 44.5575 31.0041 44.5704 30.9003C44.5745 30.8677 44.5779 30.8351 44.582 30.802C44.5921 30.7196 44.6015 30.6367 44.61 30.5536C44.6135 30.5238 44.617 30.4945 44.62 30.4647C44.6312 30.358 44.6417 30.2503 44.6515 30.1417C44.6515 30.1114 44.6567 30.081 44.659 30.0501C44.6666 29.9629 44.6742 29.8751 44.6806 29.7867C44.6806 29.7542 44.6859 29.7216 44.6882 29.689C44.6964 29.5764 44.704 29.4631 44.711 29.349C44.711 29.323 44.711 29.2937 44.715 29.2706C44.7203 29.1756 44.7255 29.0801 44.7296 28.984C44.7296 28.9493 44.7296 28.9145 44.7343 28.8797C44.7389 28.761 44.7436 28.6418 44.7471 28.5209C44.7471 28.5043 44.7471 28.4872 44.7471 28.4701C44.7502 28.3626 44.7526 28.254 44.7541 28.1443C44.7541 28.1085 44.7541 28.0726 44.7541 28.0367C44.7541 27.9189 44.7541 27.8004 44.7541 27.6812V27.6536C44.7541 27.5266 44.7541 27.398 44.7541 27.2671V27.1567C44.7541 27.0463 44.7495 26.9303 44.7465 26.8155V26.7531C44.7425 26.6206 44.7372 26.4865 44.732 26.3518C44.732 26.317 44.7284 26.2817 44.7273 26.2469C44.7222 26.1335 44.7164 26.0194 44.7098 25.9046C44.7098 25.8764 44.7098 25.8494 44.7051 25.819C44.6969 25.681 44.688 25.5419 44.6783 25.4017L44.6713 25.304C44.6625 25.1869 44.6538 25.0693 44.6439 24.9506C44.6439 24.9164 44.6386 24.8822 44.6357 24.8479C44.6235 24.7044 44.61 24.5592 44.596 24.4135C44.596 24.3859 44.5902 24.3583 44.5879 24.3301C44.5756 24.2059 44.5622 24.0806 44.5488 23.9541C44.5447 23.9161 44.5406 23.8785 44.536 23.8404C44.5196 23.6903 44.5021 23.5395 44.4835 23.3866C44.4835 23.3678 44.4782 23.3491 44.4759 23.3314C44.4591 23.1945 44.4415 23.0569 44.4228 22.9185C44.417 22.8776 44.4117 22.8368 44.4059 22.7959C44.3841 22.6391 44.3617 22.481 44.3388 22.3217C42.0055 6.60208 25.4704 9.15318 25.4704 9.15318L26 12.5307L16 22.5287L16.4369 26.3893L20.2251 28.5976C20.3939 28.1914 20.6108 27.8045 20.8714 27.4443C23.3155 24.7762 28.0574 22.6816 29.4149 22.2471C29.6867 22.1605 29.8413 22.1169 29.8413 22.1169C23.3482 30.07 24.0867 39.1813 24.376 41.3531C24.075 41.4083 23.8423 41.7523 23.8423 42.1719C23.8423 42.629 24.1182 43 24.4583 43H26.546C23.0738 44.3755 20.3177 46.9952 18.8793 50.2873C18.8776 50.2918 18.8757 50.2962 18.8735 50.3005C18.7673 50.5449 18.6685 50.7928 18.5772 51.0441C18.5773 51.0467 18.5773 51.0493 18.5772 51.0519C18.5527 51.1203 18.5287 51.1888 18.5054 51.2578C18.4967 51.2826 18.4879 51.3075 18.4797 51.3329C18.4587 51.3947 18.4393 51.4571 18.4214 51.52C18.4109 51.5521 18.401 51.5846 18.3911 51.6166C18.3724 51.6757 18.3543 51.7353 18.3368 51.795L18.3053 51.9054C18.289 51.9606 18.2727 52.0197 18.2575 52.0771C18.2464 52.1179 18.2359 52.1582 18.2254 52.1991C18.2114 52.2543 18.1968 52.3095 18.1834 52.3647C18.17 52.4199 18.1572 52.4751 18.1443 52.5336C18.1315 52.5921 18.1152 52.6606 18.1012 52.7247H17.2687C17.1087 52.7213 16.9495 52.7483 16.8006 52.8039C16.6517 52.8596 16.516 52.9429 16.4016 53.0488C16.2871 53.1548 16.1962 53.2813 16.1341 53.421C16.072 53.5607 16.04 53.7107 16.04 53.8622C16.04 54.0137 16.072 54.1637 16.1341 54.3034C16.1962 54.4431 16.2871 54.5696 16.4016 54.6756C16.516 54.7815 16.6517 54.8648 16.8006 54.9204C16.9495 54.9761 17.1087 55.0031 17.2687 54.9997H46.7713C46.9313 55.0031 47.0905 54.9761 47.2394 54.9204C47.3883 54.8648 47.524 54.7815 47.6385 54.6756C47.7529 54.5696 47.8438 54.4431 47.9059 54.3034C47.968 54.1637 48 54.0137 48 53.8622C48 53.7107 47.968 53.5607 47.9059 53.421C47.8438 53.2813 47.7529 53.1548 47.6385 53.0488C47.524 52.9429 47.3883 52.8596 47.2394 52.8039C47.0905 52.7483 46.9313 52.7213 46.7713 52.7247L46.7608 52.7147Z" fill="#595653"/>
</svg>
